<?xml version="1.0" encoding="UTF-8" standalone="no"?>
<!-- Created with Inkscape (http://www.inkscape.org/) -->

<svg
   width="890.4024"
   height="537.59253"
   viewBox="0 0 890.4024 537.59253"
   version="1.1"
   id="svg5"
   xmlns:xlink="http://www.w3.org/1999/xlink"
   xmlns="http://www.w3.org/2000/svg"
   xmlns:svg="http://www.w3.org/2000/svg">
  <defs
     id="defs2">
    <linearGradient
       id="linearGradient4629">
      <stop
         style="stop-color:#ea5454;stop-opacity:0;"
         offset="0"
         id="stop4627" />
      <stop
         style="stop-color:#ea5454;stop-opacity:1;"
         offset="1"
         id="stop4625" />
    </linearGradient>
    <filter
       style="color-interpolation-filters:sRGB"
       id="filter4801"
       x="-0.0044645532"
       y="-0.02058203"
       width="1.0089291"
       height="1.041164">
      <feGaussianBlur
         stdDeviation="0.8908267"
         id="feGaussianBlur4803" />
    </filter>
    <radialGradient
       xlink:href="#linearGradient4629"
       id="radialGradient4635"
       cx="545.6225"
       cy="56.644535"
       fx="545.6225"
       fy="56.644535"
       r="172.34344"
       gradientTransform="matrix(1,0,0,0.30943358,0,39.116813)"
       gradientUnits="userSpaceOnUse" />
    <radialGradient
       xlink:href="#linearGradient4629"
       id="radialGradient5492"
       gradientUnits="userSpaceOnUse"
       gradientTransform="matrix(1,0,0,0.30943358,-191.4931,-140.27971)"
       cx="545.6225"
       cy="56.644535"
       fx="545.6225"
       fy="56.644535"
       r="172.34344" />
  </defs>
  <g
     id="layer1"
     transform="translate(-154.79877,-45.203705)">
    <rect
       style="fill:#bbbbbb;fill-opacity:1;stroke:#7b0f0f;stroke-width:5;stroke-dasharray:none;stroke-opacity:1"
       id="rect61"
       width="885.40247"
       height="532.59259"
       x="157.29877"
       y="47.703705"
       ry="64"
       rx="64" />
  </g>
  <g
     id="layer2"
     style="display:inline"
     transform="translate(-154.79877,-45.203705)">
    <text
       xml:space="preserve"
       style="font-size:145.689px;fill:#d40000;fill-opacity:0.321882;stroke-width:0.853644;filter:url(#filter4801)"
       x="487.9494"
       y="527.7641"
       id="text464"
       transform="matrix(0.74428797,0,0,0.74428797,254.51855,136.80522)"><tspan
         id="tspan462"
         x="487.9494"
         y="527.7641"
         style="font-style:normal;font-variant:normal;font-weight:normal;font-stretch:normal;font-family:Cantarell;-inkscape-font-specification:Cantarell;fill:#d40000;fill-opacity:0.321882;stroke-width:0.853644">MARCH</tspan></text>
    <path
       style="display:none;fill:#000000;fill-opacity:1;stroke:#ea5454;stroke-width:15;stroke-dasharray:none;stroke-opacity:1"
       d="m 185.42396,150.23835 548.13007,2.3282"
       id="path2400" />
  </g>
  <g
     id="g3856"
     transform="matrix(0.69709398,0,0,0.69709398,85.464603,82.656235)">
    <path
       id="rect3854"
       style="fill:#808080;stroke:#000000;stroke-width:0.871021"
       d="m 687.56011,332.89438 h 42.53108 c 13.02425,0 23.50947,10.48522 23.50947,23.50947 v 42.53108 c 0,13.02425 -10.48522,23.50948 -23.50947,23.50948 h -42.53108 c -13.02426,0 -23.50948,-10.48523 -23.50948,-23.50948 v -42.53108 c 0,-13.02425 10.48522,-23.50947 23.50948,-23.50947 z M 566.85127,331.7809 h 42.53109 c 13.02424,0 23.50948,10.48522 23.50948,23.50947 v 42.53108 c 0,13.02426 -10.48524,23.50948 -23.50948,23.50948 h -42.53109 c -13.02424,0 -23.50946,-10.48522 -23.50946,-23.50948 v -42.53108 c 0,-13.02425 10.48522,-23.50947 23.50946,-23.50947 z M 687.56011,-18.514045 h 42.53108 c 13.02425,0 23.50947,10.485222 23.50947,23.509467 v 42.531084 c 0,13.024246 -10.48522,23.50948 -23.50947,23.50948 h -42.53108 c -13.02426,0 -23.50948,-10.485234 -23.50948,-23.50948 V 4.995422 c 0,-13.024245 10.48522,-23.509467 23.50948,-23.509467 z m -120.70884,-1.113482 h 42.53109 c 13.02424,0 23.50948,10.485222 23.50948,23.509467 v 42.531084 c 0,13.024257 -10.48524,23.509482 -23.50948,23.509482 h -42.53109 c -13.02424,0 -23.50946,-10.485225 -23.50946,-23.509482 V 3.88194 c 0,-13.024245 10.48522,-23.509467 23.50946,-23.509467 z m -120.70885,0 h 42.53108 c 13.02425,0 23.50947,10.485222 23.50947,23.509467 v 42.531084 c 0,13.024257 -10.48522,23.509482 -23.50947,23.509482 h -42.53108 c -13.02424,0 -23.50948,-10.485225 -23.50948,-23.509482 V 3.88194 c 0,-13.024245 10.48524,-23.509467 23.50948,-23.509467 z m -120.70883,0 h 42.53108 c 13.02426,0 23.50948,10.485222 23.50948,23.509467 v 42.531084 c 0,13.024257 -10.48522,23.509482 -23.50948,23.509482 h -42.53108 c -13.02425,0 -23.50947,-10.485225 -23.50947,-23.509482 V 3.88194 c 0,-13.024245 10.48522,-23.509467 23.50947,-23.509467 z m -120.70883,0 h 42.53108 c 13.02425,0 23.50947,10.485222 23.50947,23.509467 v 42.531084 c 0,13.024257 -10.48522,23.509482 -23.50947,23.509482 h -42.53108 c -13.02426,0 -23.50948,-10.485225 -23.50948,-23.509482 V 3.88194 c 0,-13.024245 10.48522,-23.509467 23.50948,-23.509467 z m 241.1132,466.798847 h 42.53108 c 13.02425,0 23.50948,10.48523 23.50948,23.50948 v 42.53108 c 0,13.02425 -10.48523,23.50947 -23.50948,23.50947 h -42.53108 c -13.02425,0 -23.50947,-10.48522 -23.50947,-23.50947 V 470.6808 c 0,-13.02425 10.48522,-23.50948 23.50947,-23.50948 z m -120.70882,0 h 42.53108 c 13.02425,0 23.50947,10.48523 23.50947,23.50948 v 42.53108 c 0,13.02425 -10.48522,23.50947 -23.50947,23.50947 h -42.53108 c -13.02426,0 -23.50948,-10.48522 -23.50948,-23.50947 V 470.6808 c 0,-13.02425 10.48522,-23.50948 23.50948,-23.50948 z m -120.70887,0 h 42.53109 c 13.02425,0 23.50948,10.48523 23.50948,23.50948 v 42.53108 c 0,13.02425 -10.48523,23.50947 -23.50948,23.50947 h -42.53109 c -13.02424,0 -23.50946,-10.48522 -23.50946,-23.50947 V 470.6808 c 0,-13.02425 10.48522,-23.50948 23.50946,-23.50948 z m -120.708848,0 h 42.531088 c 13.02424,0 23.50946,10.48523 23.50946,23.50948 v 42.53108 c 0,13.02425 -10.48522,23.50947 -23.50946,23.50947 H 83.711422 c -13.024245,0 -23.509478,-10.48522 -23.509478,-23.50947 V 470.6808 c 0,-13.02425 10.485233,-23.50948 23.509478,-23.50948 z m -120.70883,0 H 5.5336748 c 13.0242492,0 23.5094742,10.48523 23.5094742,23.50948 v 42.53108 c 0,13.02425 -10.485225,23.50947 -23.5094742,23.50947 H -36.997408 c -13.024249,0 -23.509473,-10.48522 -23.509473,-23.50947 V 470.6808 c 0,-13.02425 10.485224,-23.50948 23.509473,-23.50948 z M 446.14242,331.7809 h 42.53108 c 13.02425,0 23.50947,10.48522 23.50947,23.50947 v 42.53108 c 0,13.02426 -10.48522,23.50948 -23.50947,23.50948 h -42.53108 c -13.02424,0 -23.50948,-10.48522 -23.50948,-23.50948 v -42.53108 c 0,-13.02425 10.48524,-23.50947 23.50948,-23.50947 z M 687.56011,215.75823 h 42.53108 c 13.02425,0 23.50947,10.48523 23.50947,23.50947 v 42.53109 c 0,13.02424 -10.48522,23.50947 -23.50947,23.50947 h -42.53108 c -13.02426,0 -23.50948,-10.48523 -23.50948,-23.50947 V 239.2677 c 0,-13.02424 10.48522,-23.50947 23.50948,-23.50947 z m -120.70884,-1.11348 h 42.53109 c 13.02424,0 23.50948,10.48522 23.50948,23.50947 v 42.53108 c 0,13.02426 -10.48524,23.50948 -23.50948,23.50948 h -42.53109 c -13.02424,0 -23.50946,-10.48522 -23.50946,-23.50948 v -42.53108 c 0,-13.02425 10.48522,-23.50947 23.50946,-23.50947 z m -120.70885,0 h 42.53108 c 13.02425,0 23.50947,10.48522 23.50947,23.50947 v 42.53108 c 0,13.02426 -10.48522,23.50948 -23.50947,23.50948 h -42.53108 c -13.02424,0 -23.50948,-10.48522 -23.50948,-23.50948 v -42.53108 c 0,-13.02425 10.48524,-23.50947 23.50948,-23.50947 z m -120.70883,0 h 42.53108 c 13.02426,0 23.50948,10.48522 23.50948,23.50947 v 42.53108 c 0,13.02426 -10.48522,23.50948 -23.50948,23.50948 h -42.53108 c -13.02425,0 -23.50947,-10.48522 -23.50947,-23.50948 v -42.53108 c 0,-13.02425 10.48522,-23.50947 23.50947,-23.50947 z m -120.70883,0 h 42.53108 c 13.02425,0 23.50947,10.48522 23.50947,23.50947 v 42.53108 c 0,13.02426 -10.48522,23.50948 -23.50947,23.50948 h -42.53108 c -13.02426,0 -23.50948,-10.48522 -23.50948,-23.50948 v -42.53108 c 0,-13.02425 10.48522,-23.50947 23.50948,-23.50947 z m -120.708853,0 h 42.531083 c 13.02424,0 23.50947,10.48522 23.50947,23.50947 v 42.53108 c 0,13.02426 -10.48523,23.50948 -23.50947,23.50948 H 84.015907 c -13.024246,0 -23.509479,-10.48522 -23.509479,-23.50948 v -42.53108 c 0,-13.02425 10.485233,-23.50947 23.509479,-23.50947 z m -120.708833,0 H 5.8381568 c 13.0242492,0 23.5094742,10.48522 23.5094742,23.50947 v 42.53108 c 0,13.02426 -10.485225,23.50948 -23.5094742,23.50948 H -36.692926 c -13.024249,0 -23.509474,-10.48522 -23.509474,-23.50948 v -42.53108 c 0,-13.02425 10.485225,-23.50947 23.509474,-23.50947 z M 325.43359,331.7809 h 42.53108 c 13.02426,0 23.50948,10.48522 23.50948,23.50947 v 42.53108 c 0,13.02426 -10.48522,23.50948 -23.50948,23.50948 h -42.53108 c -13.02425,0 -23.50947,-10.48522 -23.50947,-23.50948 v -42.53108 c 0,-13.02425 10.48522,-23.50947 23.50947,-23.50947 z M 687.56011,98.622096 h 42.53108 c 13.02425,0 23.50947,10.485224 23.50947,23.509464 v 42.53109 c 0,13.02424 -10.48522,23.50948 -23.50947,23.50948 h -42.53108 c -13.02426,0 -23.50948,-10.48524 -23.50948,-23.50948 v -42.53109 c 0,-13.02424 10.48522,-23.509464 23.50948,-23.509464 z m -120.70884,-1.11349 h 42.53109 c 13.02424,0 23.50948,10.485234 23.50948,23.509474 v 42.53109 c 0,13.02425 -10.48524,23.50947 -23.50948,23.50947 h -42.53109 c -13.02424,0 -23.50946,-10.48522 -23.50946,-23.50947 v -42.53109 c 0,-13.02424 10.48522,-23.509474 23.50946,-23.509474 z m -120.70885,0 h 42.53108 c 13.02425,0 23.50947,10.485234 23.50947,23.509474 v 42.53109 c 0,13.02425 -10.48522,23.50947 -23.50947,23.50947 h -42.53108 c -13.02424,0 -23.50948,-10.48522 -23.50948,-23.50947 v -42.53109 c 0,-13.02424 10.48524,-23.509474 23.50948,-23.509474 z m -120.70883,0 h 42.53108 c 13.02426,0 23.50948,10.485234 23.50948,23.509474 v 42.53109 c 0,13.02425 -10.48522,23.50947 -23.50948,23.50947 h -42.53108 c -13.02425,0 -23.50947,-10.48522 -23.50947,-23.50947 v -42.53109 c 0,-13.02424 10.48522,-23.509474 23.50947,-23.509474 z m -120.70883,0 h 42.53108 c 13.02425,0 23.50947,10.485234 23.50947,23.509474 v 42.53109 c 0,13.02425 -10.48522,23.50947 -23.50947,23.50947 h -42.53108 c -13.02426,0 -23.50948,-10.48522 -23.50948,-23.50947 v -42.53109 c 0,-13.02424 10.48522,-23.509474 23.50948,-23.509474 z m -120.708853,0 h 42.531083 c 13.02424,0 23.50947,10.485234 23.50947,23.509474 v 42.53109 c 0,13.02425 -10.48523,23.50947 -23.50947,23.50947 H 84.015907 c -13.024246,0 -23.509479,-10.48522 -23.509479,-23.50947 v -42.53109 c 0,-13.02424 10.485233,-23.509474 23.509479,-23.509474 z m -120.708833,0 H 5.8381568 c 13.0242492,0 23.5094742,10.485234 23.5094742,23.509474 v 42.53109 c 0,13.02425 -10.485225,23.50947 -23.5094742,23.50947 H -36.692926 c -13.024249,0 -23.509474,-10.48522 -23.509474,-23.50947 v -42.53109 c 0,-13.02424 10.485225,-23.509474 23.509474,-23.509474 z M 204.72476,331.7809 h 42.53108 c 13.02425,0 23.50947,10.48522 23.50947,23.50947 v 42.53108 c 0,13.02426 -10.48522,23.50948 -23.50947,23.50948 h -42.53108 c -13.02426,0 -23.50948,-10.48522 -23.50948,-23.50948 v -42.53108 c 0,-13.02425 10.48522,-23.50947 23.50948,-23.50947 z m -120.708853,0 h 42.531083 c 13.02424,0 23.50947,10.48522 23.50947,23.50947 v 42.53108 c 0,13.02426 -10.48523,23.50948 -23.50947,23.50948 H 84.015907 c -13.024246,0 -23.509479,-10.48522 -23.509479,-23.50948 v -42.53108 c 0,-13.02425 10.485233,-23.50947 23.509479,-23.50947 z m -120.708833,0 H 5.8381568 c 13.0242492,0 23.5094742,10.48522 23.5094742,23.50947 v 42.53108 c 0,13.02426 -10.485225,23.50948 -23.5094742,23.50948 H -36.692926 c -13.024249,0 -23.509474,-10.48522 -23.509474,-23.50948 v -42.53108 c 0,-13.02425 10.485225,-23.50947 23.509474,-23.50947 z" />
  </g>
  <g
     id="layer3"
     transform="translate(117.22351,284.77938)"
     style="display:inline">
    <g
       id="g4600"
       transform="matrix(1.5124,-0.40524635,0.40524635,1.5124,-45.182691,380.5015)"
       style="fill:#d40000;fill-opacity:1;stroke:url(#radialGradient4635);stroke-width:4;stroke-dasharray:none;stroke-opacity:1">
      <path
         id="rect4872"
         style="display:inline;fill:#cccccc;fill-opacity:1;stroke:url(#radialGradient5492);stroke-width:4;stroke-dasharray:none;stroke-opacity:1"
         d="m 187.71606,-183.12528 h 354.32382 c 1.01349,0 1.8294,0.54526 1.8294,1.22257 v 116.176661 c 0,0.67731 -0.81591,1.22258 -1.8294,1.22258 H 187.71606 c -1.01349,0 -1.8294,-0.54527 -1.8294,-1.22258 V -181.90271 c 0,-0.67731 0.81591,-1.22257 1.8294,-1.22257 z" />
      <text
         xml:space="preserve"
         style="font-size:145.689px;display:inline;fill:#d40000;fill-opacity:1;stroke:none;stroke-width:4;stroke-dasharray:none;stroke-opacity:1"
         x="193.24564"
         y="-80.040161"
         id="text464-3"
         transform="rotate(0.03688521)"><tspan
           id="tspan462-6"
           x="193.24564"
           y="-80.040161"
           style="font-style:normal;font-variant:normal;font-weight:normal;font-stretch:normal;font-family:Padauk;-inkscape-font-specification:Padauk;fill:#d40000;fill-opacity:1;stroke:none;stroke-width:4;stroke-dasharray:none;stroke-opacity:1">JUNE</tspan></text>
    </g>
  </g>
</svg>
